<svg width="32" height="32" viewBox="0 0 32 32" fill="none" xmlns="http://www.w3.org/2000/svg">
<g clip-path="url(#clip0_1001_168)">
<path d="M7.0216 13.0194C8.26505 9.25151 11.8059 6.54546 16 6.54546C18.2545 6.54546 20.2909 7.34546 21.8909 8.65455L26.5455 4C23.7091 1.52727 20.0727 0 16 0C9.69343 0 4.26367 3.59773 1.65332 8.8667L7.0216 13.0194Z" fill="#EB4335"/>
<path d="M21.3876 24.0164C19.9345 24.9547 18.0881 25.4541 16 25.4541C11.8219 25.4541 8.29211 22.7688 7.03593 19.0234L1.6499 23.1129C4.25701 28.3911 9.68662 31.9996 16 31.9996C19.9104 31.9996 23.6471 30.6095 26.4455 27.999L21.3876 24.0164Z" fill="#1CBF73"/>
<path d="M26.4456 27.9994C29.3722 25.2694 31.2727 21.2048 31.2727 15.9999C31.2727 15.0545 31.1273 14.0363 30.9091 13.0908H16V19.2726H24.5818C24.1584 21.3514 23.0217 22.9615 21.3876 24.0167L26.4456 27.9994Z" fill="#4285F4"/>
<path d="M7.03598 19.0243C6.71777 18.0756 6.54546 17.0588 6.54546 16.0005C6.54546 14.9582 6.71258 13.9562 7.0216 13.0199L1.65332 8.86719C0.582116 11.0144 0 13.4343 0 16.0005C0 18.5599 0.593041 20.974 1.64995 23.1138L7.03598 19.0243Z" fill="#FBBC05"/>
</g>
<defs>
<clipPath id="clip0_1001_168">
<rect width="32" height="32" fill="white"/>
</clipPath>
</defs>
</svg>
