<svg width="10" height="10" viewBox="0 0 10 10" fill="none" xmlns="http://www.w3.org/2000/svg">
<path d="M4.38662 2.97478C4.71154 2.38043 4.87404 2.08325 4.99825 2.08325C5.1225 2.08325 5.28496 2.38043 5.60992 2.97478C5.94437 3.58653 6.39133 4.03874 7.02037 4.38325C7.61575 4.70934 7.91342 4.87234 7.91342 4.99671C7.91342 5.12109 7.61554 5.28429 7.01979 5.61067C6.40867 5.94546 5.95692 6.39292 5.61275 7.02263C5.28704 7.61859 5.12417 7.91659 4.99992 7.91659C4.87571 7.91659 4.71267 7.61842 4.38662 7.022C4.05217 6.41025 3.6052 5.95804 2.97613 5.61354C2.37876 5.28638 2.08008 5.12279 2.08008 4.99842C2.08008 4.874 2.37876 4.71042 2.97613 4.38325C3.6052 4.03874 4.05217 3.58653 4.38662 2.97478Z" stroke="#CC5500" stroke-width="0.625" stroke-linecap="round" stroke-linejoin="round"/>
</svg>
