<svg width="34" height="34" viewBox="0 0 34 34" fill="none" xmlns="http://www.w3.org/2000/svg">
<path d="M13.6083 6.81871C15.2798 6.05089 16.1155 5.66699 17.0002 5.66699C17.8849 5.66699 18.7206 6.05089 20.3921 6.81871L27.3238 10.0029C29.8859 11.1798 31.1668 11.7682 31.1668 12.7503C31.1668 13.7324 29.8859 14.3208 27.3238 15.4978L20.3921 18.6819C18.7206 19.4497 17.8849 19.8337 17.0002 19.8337C16.1155 19.8337 15.2798 19.4497 13.6083 18.6819L6.67649 15.4978C4.11449 14.3208 2.8335 13.7324 2.8335 12.7503C2.8335 11.7682 4.11449 11.1798 6.67649 10.0029L13.6083 6.81871Z" stroke="#FAFAFA" stroke-width="1.2" stroke-linecap="round" stroke-linejoin="round"/>
<path d="M28.663 19.125C30.3322 19.9212 31.1667 20.4574 31.1667 21.2501C31.1667 22.2323 29.8858 22.8207 27.3237 23.9976L20.392 27.1817C18.7204 27.9496 17.8847 28.3335 17 28.3335C16.1153 28.3335 15.2796 27.9496 13.6082 27.1817L6.67637 23.9976C4.11437 22.8207 2.83337 22.2323 2.83337 21.2501C2.83337 20.4574 3.66792 19.9212 5.33701 19.125" stroke="#FAFAFA" stroke-width="1.2" stroke-linecap="round" stroke-linejoin="round"/>
</svg>
